<?xml version="1.0" standalone="no"?><!DOCTYPE svg PUBLIC "-//W3C//DTD SVG 1.1//EN" "http://www.w3.org/Graphics/SVG/1.1/DTD/svg11.dtd"><svg t="1554899019308" class="icon" style="" viewBox="0 0 1024 1024" version="1.1" xmlns="http://www.w3.org/2000/svg" p-id="6252" xmlns:xlink="http://www.w3.org/1999/xlink" width="200" height="200"><defs><style type="text/css"></style></defs><path d="M353.104 370.758h317.794v105.932H353.104z" fill="#FFCF65" p-id="6253"></path><path d="M211.862 723.862h600.276v194.206H211.862z" fill="#FF4B4B" p-id="6254"></path><path d="M264.828 582.62h494.344v105.932H264.828z" fill="#FFCF65" p-id="6255"></path><path d="M264.828 582.62h494.344v52.966H264.828zM353.104 370.758h317.794v52.966H353.104z" fill="#FFB450" p-id="6256"></path><path d="M852.438 724.19l-93.266-53.294H264.828l-93.266 53.294c-8.256 4.718-4.908 17.326 4.602 17.326H847.84c9.508 0.002 12.856-12.606 4.598-17.326zM512 141.242c-55.266 106.386-164.592 154.386-209.522 170.232-9.04 3.186-11.556 14.762-4.778 21.54l55.404 55.402h317.794l55.404-55.404c6.778-6.778 4.262-18.352-4.778-21.54-44.932-15.844-154.258-63.844-209.524-170.23z" fill="#625D6B" p-id="6257"></path><path d="M512 123.586m-35.31 0a35.31 35.31 0 1 0 70.62 0 35.31 35.31 0 1 0-70.62 0Z" fill="#FFCF65" p-id="6258"></path><path d="M670.896 459.034H353.104l-142.452 63.312c-7.924 3.522-9.852 13.9-3.718 20.032l57.896 57.898h494.344l57.896-57.896c6.132-6.132 4.206-16.51-3.718-20.032l-142.456-63.314z" fill="#504B5A" p-id="6259"></path><path d="M819.714 529.656c-1.066-3.058-3.05-5.836-6.364-7.31l-142.454-63.312H353.104l-142.452 63.314c-3.314 1.472-5.298 4.25-6.364 7.31h615.428v-0.002z" fill="#625D6B" p-id="6260"></path><path d="M728.306 317.794H295.694c-2.508 4.802-2.31 10.9 2.006 15.218l55.404 55.402h317.794l55.404-55.404c4.316-4.314 4.512-10.414 2.004-15.216z" fill="#504B5A" p-id="6261"></path><path d="M211.862 741.518h600.276v35.31H211.862zM564.966 476.69h-105.932a17.658 17.658 0 0 1-17.656-17.656v-123.586a17.658 17.658 0 0 1 17.656-17.656h105.932a17.658 17.658 0 0 1 17.656 17.656v123.586a17.658 17.658 0 0 1-17.656 17.656z" fill="#FFB450" p-id="6262"></path><path d="M476.69 353.104h70.62v88.276h-70.62z" fill="#5091D7" p-id="6263"></path><path d="M529.656 812.138h-35.31a17.658 17.658 0 0 0-17.656 17.656v88.276h70.62v-88.276a17.654 17.654 0 0 0-17.654-17.656zM370.758 812.138h-35.31a17.658 17.658 0 0 0-17.656 17.656v88.276h70.62v-88.276a17.654 17.654 0 0 0-17.654-17.656zM688.552 812.138h-35.31a17.658 17.658 0 0 0-17.656 17.656v88.276h70.62v-88.276a17.654 17.654 0 0 0-17.654-17.656z" fill="#504B5A" p-id="6264"></path><path d="M441.38 918.068H35.31v-52.966a17.658 17.658 0 0 1 17.656-17.656h370.758a17.658 17.658 0 0 1 17.656 17.656v52.966zM988.69 918.068H582.62v-52.966a17.658 17.658 0 0 1 17.656-17.656h370.758a17.658 17.658 0 0 1 17.656 17.656v52.966z" fill="#EDEDEE" p-id="6265"></path><path d="M1006.344 935.724H17.656a17.658 17.658 0 0 1 0-35.312h988.69a17.658 17.658 0 0 1 17.656 17.656 17.656 17.656 0 0 1-17.658 17.656z" fill="#DCDBDE" p-id="6266"></path></svg>