<?xml version="1.0" standalone="no"?><!DOCTYPE svg PUBLIC "-//W3C//DTD SVG 1.1//EN" "http://www.w3.org/Graphics/SVG/1.1/DTD/svg11.dtd"><svg t="1554898947931" class="icon" style="" viewBox="0 0 1024 1024" version="1.1" xmlns="http://www.w3.org/2000/svg" p-id="4353" xmlns:xlink="http://www.w3.org/1999/xlink" width="200" height="200"><defs><style type="text/css"></style></defs><path d="M979.3 485.3c-5-87-33.7-170.2-83.1-241.2l58.2-100.9c6.9-12 8.8-26 5.2-39.5-3.6-13.4-12.2-24.6-24.2-31.6-7.9-4.6-16.9-7-26-7-18.5 0-35.8 10-45.1 26L759.2 273.3 581.6 170.8c-2.4-1.4-5-2.6-7.7-3.7-6-2.4-12.4-3.5-18.9-3.5-18.5 0-35.8 10-45.1 26l-49.5 85.8c-0.4-0.9-0.9-1.8-1.4-2.6-5.3-9.3-15.3-15-26-15-5.3 0-10.4 1.4-15 4l-183.7 106-44.7-25.8c13.8-26.2 30.8-50.8 50.6-73.1 31.5-35.4 68.9-63.9 111.1-84.7 43.7-21.5 90.7-33.9 139.8-36.7 7.1-0.4 14.2-0.6 21.3-0.6 41.7 0 82.6 7.1 121.8 21.1 27.2 9.7 53.2 22.7 77.2 38.5 8.5 5.6 18.4 8.6 28.6 8.6 14.8 0 29-6.3 38.8-17.4 10.1-11.3 14.7-26.4 12.8-41.4-2-15-10.3-28.3-23-36.7-76.3-50.2-165-76.8-256.3-76.8-9 0-18.1 0.3-27.1 0.8-63.1 3.6-123.6 19.5-179.8 47.2-54.3 26.8-102.3 63.4-142.8 108.9-40.4 45.5-71.3 97.5-91.6 154.6-21.1 59.1-29.9 121.2-26.3 184.4 14.2 248.1 219.3 442.4 467 442.4 9 0 18-0.3 27-0.8 63.1-3.6 123.6-19.5 179.8-47.2 54.3-26.8 102.3-63.4 142.8-108.9 40.4-45.5 71.3-97.5 91.6-154.6 21.2-59.1 30-121.1 26.4-184.3zM783.7 755.2c-31.5 35.4-68.9 63.9-111.1 84.7-43.7 21.5-90.7 33.9-139.8 36.7l-5.1 0.3c29.3-27.1 37-69.8 20.7-104.9 3.9 0.9 8 1.5 12.1 1.5 18.5 0 35.8-10 45.1-26l51.1-88.6c5.4 8 14.6 13.4 25 13.4h157.7c-14.6 29.8-33.3 57.7-55.7 82.9zM294.4 402.4l139-80.2-72.5 125.5c-2.5-5.9-6.9-10.8-12.6-14.1l-53.9-31.2z m38.9 87.2c1.2 0 2.4-0.1 3.5-0.2l-44.6 77.3c-6.9 12-8.8 26-5.2 39.5 0.6 2.1 1.2 4.1 2 6.1H161.8c-7.3-25.7-11.7-52.3-13.3-79.4-2.6-46.3 3.3-91.7 17.6-135.2l152.3 87.9c4.5 2.6 9.7 4 14.9 4z m208.2 160.7l-37-21.4L670.2 342l37 21.4-165.7 286.9z m-133.1-76.8l165.6-287 44.2 25.5-165.6 287-44.2-25.5z m-37.1 98.7l110.2 63.6c-6.6 1.9-12.9 5.2-18.3 9.6-2.5 2.1-4.8 4.3-6.9 6.7-2.8-1.6-5.7-3-8.8-4.1-5.8-2.1-11.8-3.2-17.8-3.2-21.7 0-41.4 13.7-48.8 34.2-8.5 23.2-7 48.8 3.5 70.6h-11.3c-37.8-15.7-72.6-37.5-103.4-65.1-35.3-31.6-63.8-69.1-84.6-111.4-0.2-0.3-0.3-0.6-0.5-0.9h186.7z m498.9-225.5L836.8 466l-38-21.9c-4.6-2.6-9.7-4-15-4h-0.8l53.8-93.2c0.7 1.3 1.3 2.7 2 4 14.9 30.4 25.5 62.5 31.4 95.8z m-48.5 79.8c4.5 2.6 9.7 4 15 4h0.3c5.3 0 10.4-1.4 15-4l24.2-14c0 33.9-4.6 67.3-13.8 99.6H683.7l73.8-127.8c2.6 4.8 6.5 8.8 11.4 11.6l52.8 30.6z" fill="#FFD4D4" p-id="4354"></path><path d="M475.9 760.9c-13.7 11.2-15.7 31.3-4.5 45 2.4 2.9 1.9 7.1-1 9.5-2.9 2.4-7.1 1.9-9.5-1-2.3-2.8-1.4-5.8-1.1-6.6 6.1-16.6-2.5-35-19.1-41-16.6-6.1-35 2.5-41 19.1-8.5 23.4-4.1 49.8 11.7 69.1 14 17.1 34.3 25.9 54.8 25.9 15.7 0 31.6-5.2 44.7-15.9 30.2-24.7 34.7-69.3 10-99.5-11.1-13.8-31.3-15.8-45-4.6z" fill="#FF7550" p-id="4355"></path><path d="M959.4 486.4c-5.2-90.6-36.8-173.3-86.9-241.2l64.7-112c8.8-15.3 3.6-34.9-11.7-43.7-15.3-8.8-34.9-3.6-43.7 11.7L766.5 300.7l-195-112.6c-1.6-0.9-3.2-1.7-4.9-2.3-14.5-5.7-31.4-0.1-39.4 13.8l-217.7 377c-8.8 15.3-3.6 34.9 11.7 43.7 0.9 0.5 1.7 0.9 2.6 1.3l18.2 10.5H147c-10.3-31.6-16.5-64.4-18.4-98.2-3-52 4.3-102.9 21.6-151.4 1.7-4.7 3.5-9.4 5.4-14.1l172.9 99.8c4.8 2.8 10.9 1.1 13.7-3.7 2.8-4.8 1.1-10.9-3.7-13.7l-84-48.5 183.7-106c4.8-2.8 6.4-8.9 3.7-13.7-2.8-4.8-8.9-6.4-13.7-3.7l-193.8 112-70.9-41c15.8-34.2 36.6-65.9 61.9-94.4 33.2-37.3 72.6-67.4 117.2-89.4 46.1-22.7 95.7-35.7 147.5-38.7S592.7 131.7 641 149c28.8 10.3 56 23.9 81.4 40.6 13.3 8.7 30.9 6.4 41.5-5.4 13-14.6 10-37.3-6.3-48-77.5-51-171.5-78.5-271.2-72.8C239.3 77.7 50.5 289.9 64.6 537.6s225.9 437 473 422.8 435.9-226.3 421.8-474zM548.8 677.7l-71.6-41.4 185.7-321.6 71.6 41.4-185.7 321.6z m-167.7-96.9l185.7-321.6 78.8 45.5-185.7 321.6-78.8-45.5z m417.5 187.6c-33.2 37.3-72.6 67.4-117.2 89.4-46.1 22.7-95.7 35.7-147.5 38.7s-102.6-4.3-150.9-21.6c-46.8-16.7-89.4-42.1-126.6-75.4-37.3-33.3-67.3-72.9-89.2-117.5-4.8-9.8-9.2-19.7-13.1-29.8h222.5l167.9 96.9c15.3 8.8 34.9 3.6 43.7-11.7L837 306.6c7.2 11.4 13.8 23.3 19.8 35.5 17.9 36.4 29.7 74.9 35.4 115l-55.4 32-48-27.7c-4.8-2.8-10.9-1.1-13.7 3.7-2.8 4.8-1.1 10.9 3.7 13.7l52.9 30.5c1.6 0.9 3.4 1.4 5.1 1.3 1.7 0 3.5-0.4 5.1-1.3l52.7-30.4c0.3 3.8 0.6 7.5 0.8 11.3 2.8 48.6-3.4 96.4-18.4 142.1H681.7c-5.5 0-10 4.5-10 10s4.5 10 10 10h188.2c-16.6 42.6-40.6 81.6-71.3 116.1z" fill="#FF7550" p-id="4356"></path></svg>