<?xml version="1.0" standalone="no"?><!DOCTYPE svg PUBLIC "-//W3C//DTD SVG 1.1//EN" "http://www.w3.org/Graphics/SVG/1.1/DTD/svg11.dtd"><svg t="1554898826763" class="icon" style="" viewBox="0 0 1125 1024" version="1.1" xmlns="http://www.w3.org/2000/svg" p-id="2123" xmlns:xlink="http://www.w3.org/1999/xlink" width="219.7265625" height="200"><defs><style type="text/css"></style></defs><path d="M1123.696321 1024H0v-35.033583a58.584587 58.584587 0 0 1 58.584587-58.584587h1006.527147a58.584587 58.584587 0 0 1 58.584587 58.584587z" fill="#2674FD" p-id="2124"></path><path d="M1031.996796 883.572744h-0.131815V414.588478h0.131815a46.86767 46.86767 0 0 0 46.86767-46.86767h-187.470679a46.86767 46.86767 0 0 0 46.86767 46.86767h0.131815v468.984266h-0.131815a46.86767 46.86767 0 0 0-46.86767 46.86767h187.470679a46.86767 46.86767 0 0 0-46.86767-46.86767zM48.874192 367.779392a46.86767 46.86767 0 0 0 46.86767 46.86767h0.131815v468.925682h-0.131815a46.86767 46.86767 0 0 0-46.86767 46.86767h187.470679a46.86767 46.86767 0 0 0-46.86767-46.86767h-0.131815V414.588478h0.131815a46.86767 46.86767 0 0 0 46.86767-46.86767h-187.470679zM471.239773 414.588478a46.86767 46.86767 0 0 0 46.86767-46.86767h-187.470679a46.86767 46.86767 0 0 0 46.86767 46.86767h0.131815v468.984266h-0.131815a46.86767 46.86767 0 0 0-46.86767 46.86767h187.470679a46.86767 46.86767 0 0 0-46.86767-46.86767h-0.131815V414.588478zM611.388752 367.779392a46.86767 46.86767 0 0 0 46.86767 46.86767h0.131815v468.969621h-0.131815a46.86767 46.86767 0 0 0-46.86767 46.86767h187.470679a46.86767 46.86767 0 0 0-46.867669-46.86767h-0.131816V414.588478h0.131816a46.86767 46.86767 0 0 0 46.867669-46.86767h-187.470679z" fill="#FFE41F" p-id="2125"></path><path d="M1092.602552 257.508553L588.672579 6.166028a58.584587 58.584587 0 0 0-52.301391 0L32.441215 257.508553A58.584587 58.584587 0 0 0 0 309.927113v27.988786a29.292294 29.292294 0 0 0 29.292294 29.292294h1066.459179a29.292294 29.292294 0 0 0 29.292294-29.292294v-27.988786A58.584587 58.584587 0 0 0 1092.602552 257.508553z m-528.7259 28.208479a93.61817 93.61817 0 1 1 93.61817-93.618171A93.61817 93.61817 0 0 1 563.876652 285.717032z" fill="#2674FD" p-id="2126"></path></svg>