<?xml version="1.0" standalone="no"?><!DOCTYPE svg PUBLIC "-//W3C//DTD SVG 1.1//EN" "http://www.w3.org/Graphics/SVG/1.1/DTD/svg11.dtd"><svg t="1554899030769" class="icon" style="" viewBox="0 0 2257 1024" version="1.1" xmlns="http://www.w3.org/2000/svg" p-id="6416" xmlns:xlink="http://www.w3.org/1999/xlink" width="440.8203125" height="200"><defs><style type="text/css"></style></defs><path d="M119.937679 451.555865v98.901107L0 539.062162l10.372199-58.434922z m2015.274398-8.765238l102.261115 35.060954 18.114826 61.356669-120.522028 14.60873zM137.029894 440.891492L199.263087 379.826998h54.928827v187.283927l-116.869846-14.60873zM2118.265949 555.131766l-105.036773 12.563508V375.444379h52.883605l52.153168 55.221002zM442.498452 329.426877l16.069604-186.261316-16.069604-20.598311 4.236532-19.575699 18.99135-2.921746 3.79827-37.106176 21.328747-6.427841 15.339167 9.057413 1.753048 31.847033h8.911326l12.855683 25.711366 2.191309 17.092215-19.575699 2.775658 11.979159 184.654356v214.748341l-81.662804 9.203501z m996.315433-84.146289l71.290606 20.59831v54.344479l50.107946 62.671454v164.494308l-134.546409-16.507866V266.90151z m-610.937117 80.201932h25.565279v219.13096l-25.565279-2.19131zM1868.456655 365.218267l70.998431 10.664374c39.005311-19.867874 62.963629-76.549749-6.135667-48.647074a353.239108 353.239108 0 0 0-64.862764 37.9827z m-87.652384 0.876524c8.473064-5.551318 19.721786-12.563508 32.285294-20.160048a732.335669 732.335669 0 0 1 98.316758-49.815772c94.080226-36.667914 131.478576 24.104406 73.77409 79.909757h11.39481V569.740497h-216.355302z m-107.520258-40.612271c42.073144-70.267995 15.485255-146.087307-33.892255-128.849005-13.440032 4.820881-27.756588 20.013961-23.081795 54.198391 3.360008 28.487025 27.026152 53.906216 56.3897 74.358439z m90.428043 243.235366L1577.742914 549.288274V393.705292h22.351358a207.151801 207.151801 0 0 0 53.17578-41.488795c-36.667914-25.857453-66.031463-58.434923-71.290606-97.001972-6.427842-47.624462 14.608731-80.786281 46.601851-91.888916 82.539328-27.172239 145.210783 85.1689 86.045424 185.969142a236.077088 236.077088 0 0 0 49.085335 19.721786z m-100.215893-161.426474l73.043654-11.248723a411.089681 411.089681 0 0 1-41.927058-18.845263 225.12054 225.12054 0 0 1-31.700945 29.655724z m-1362.994573-137.614244c-13.58612 15.631342 4.382619 73.043653 27.318327 99.485456L394.435729 346.811266c-14.608731-33.600081-68.222772-106.643734-93.934139-77.134098z m-29.217461 110.734179v-1.314786c-32.139208-54.198391-35.937477-120.229854-3.360008-142.435124 40.612271-27.464414 107.95852 10.518286 157.482117 105.328948v209.781373L271.430216 569.740497z m1136.997509-85.753249v233.739691l-130.017703 22.205271V294.658098H1344.003223a506.338606 506.338606 0 0 0-65.739288-97.440234V118.476806a615.173649 615.173649 0 0 1 129.725528 176.181292zM870.534262 546.074353V325.336432c-18.553088-102.261115 21.474834-179.833475 85.314987-226.289238v103.575901a194.442205 194.442205 0 0 0-11.979159 122.713337h11.979159v228.042286zM637.817182 256.967573l-21.18266 22.935707-11.686984-10.080024 18.845262-24.98093a38.713136 38.713136 0 0 0-48.500986 1.314786c-13.147858 14.608731-8.911326 38.859224 9.349588 55.805351S628.175419 321.392075 641.907626 306.783344a38.128787 38.128787 0 0 0-4.090444-49.815771z m27.902675 10.956548l17.676564-60.334058-32.577469 35.353128a73.043653 73.043653 0 0 1 14.900905 24.98093z m85.461075 57.558399l-37.398351-107.228084-30.093985 119.645505z m60.334058 0v215.478777l-157.482117-13.440032-112.487226 12.855683V337.899941h37.39835a77.134098 77.134098 0 0 1-16.946128-11.833072 63.98624 63.98624 0 0 1-8.765238-90.720218 64.716677 64.716677 0 0 1 82.539328-5.551317l92.181091-122.567251z m355.28433-268.800645a262.080628 262.080628 0 0 1 94.3724 47.624462v74.358439a268.070208 268.070208 0 0 0-94.3724-65.154939z m29.947898 143.74991l46.894025 36.083565 17.676564 39.151398v277.565883L1166.79932 569.740497V143.019473l29.947898 24.834843z m-223.805754 102.261115l24.834842-66.031463 42.511406-36.083565v-32.723556l33.892255-33.015732 8.180889-28.19485a173.405633 173.405633 0 0 0-109.419392 67.054074V87.652384a268.362383 268.362383 0 0 1 125.927258-37.690525L1113.185278 0h8.180889l13.440033 50.838383q7.450453 0.730437 14.60873 2.045222V569.740497L972.941464 555.131766zM534.095194 636.064134v27.464414c14.608731 0 20.160048-3.360008 20.160048-14.608731s-4.382619-16.069604-14.60873-16.069604c-3.944357-0.584349-5.40523 0.730437-5.551318 3.213921z m-28.340938 62.087105a9.2035 9.2035 0 0 0 8.619151-9.933936V641.323277a8.473064 8.473064 0 0 0-8.619151-9.787849V628.175419h37.544438c9.78785 0 31.116596 2.045222 31.116597 19.867874a17.530477 17.530477 0 0 1-10.080025 16.653953 62.087105 62.087105 0 0 1-30.386159 4.382619v18.99135a8.619151 8.619151 0 0 0 8.765238 9.933937V701.219073h-36.960089zM203.353531 701.219073H166.53953v-3.652183c5.259143 0 8.619151-1.60696 8.619151-7.450452v-24.834843H146.087307v24.834843c0 5.98958 3.652183 6.866103 9.057413 7.450452V701.219073H117.600282v-3.652183c5.259143 0 8.473064-1.753048 8.473064-7.450452V638.401531c0-6.135667-3.944357-7.012191-8.473064-7.450453v-3.506095h37.252263v3.506095c-4.674794 0-9.057413 1.314786-9.057413 7.59654v22.351358h29.217462V638.401531c0-6.135667-4.090445-7.158278-8.619151-7.59654v-3.506095h36.814001v3.506095c-4.382619 0-8.473064 1.460873-8.473064 7.59654v52.299256c0 5.697405 3.360008 6.720016 8.473064 7.450452zM942.117042 631.535428a11.39481 11.39481 0 0 0-9.495675 6.135666l-21.767009 31.993121v18.99135c0 7.158278 3.360008 8.473064 8.180889 9.2035V701.219073h-36.814001v-3.506095c4.820881 0 8.911326-1.168698 8.911326-9.203501v-15.631342l-22.351358-35.645303a10.810461 10.810461 0 0 0-9.495675-5.843492V628.175419h36.375739v3.067834c-4.090445 0-7.158278 3.213921-2.921746 9.641762l13.00177 22.78962 16.361779-23.373969c4.528707-7.158278 0-8.473064-3.506096-8.765238V628.175419h22.78962zM1239.696886 631.38934c-5.551318 0.876524-7.158278 3.067833-9.641762 8.619151L1203.028972 701.219073H1197.915916l-30.38616-62.671455c-2.921746-5.843492-4.674794-6.720016-8.911325-7.304365V628.175419h36.521826v3.360009c-7.59654 0-7.450453 5.697405-6.281754 8.326976l17.092215 36.229652 16.653953-36.960089c2.045222-4.820881 0-7.158278-4.090445-7.596539V628.175419h20.744398zM1598.341224 680.182501l-4.236532 21.036572h-68.514947v-3.506095c5.551318 0 8.619151-2.483484 8.619152-8.473064v-49.085335c0-6.281754-3.944357-8.180889-8.619152-8.619151V628.175419H1563.134183v3.506096c-5.113056 0-9.057413 2.045222-9.057413 8.619151v49.085335c0 5.259143 2.629572 7.742627 10.810461 7.742627 19.137437 0 24.834842-5.40523 29.217461-16.80004zM1894.314108 628.175419h68.076685v20.306136h-3.360008c-2.921746-13.00177-14.608731-15.923516-27.756588-15.631342-6.720016 0-8.911326 2.045222-8.911326 6.720016v21.620922c11.102635 0 17.38439-1.753048 19.429612-13.58612h3.506095v32.869644h-3.360008c-1.899135-11.686985-8.034802-13.732207-19.429612-13.732207v23.37397c0 4.820881 2.337397 6.720016 10.226112 6.720016a30.532247 30.532247 0 0 0 31.408771-16.800041h3.79827L1963.413404 701.219073h-69.099296v-3.652183c5.551318 0 8.619151-1.460873 8.619151-7.450452v-50.692296c0-6.135667-3.79827-7.158278-8.326976-7.59654z" fill="#d4237a" p-id="6417"></path><path d="M144.188172 660.460714h34.038342v6.866104H144.188172zM358.644338 701.219073v-2.921746c5.113056 0 6.281754-1.899135 6.281755-4.820881a44.702716 44.702716 0 0 0-4.820882-12.417421h-26.00354a62.233193 62.233193 0 0 0-4.674794 12.271333c0 3.506095 1.168698 4.820881 4.820881 5.113056V701.219073h-20.890485v-3.067834c5.697405-1.60696 7.304365-4.674794 10.810461-12.271333l26.149628-58.434923h5.697405l25.857453 56.097526c4.966968 10.518286 6.573929 13.293945 11.686985 14.60873V701.219073z m-1.60696-27.172239l-9.78785-23.373969-10.226111 23.373969zM711.445184 636.064134v27.464414c14.608731 0 20.160048-3.360008 20.160049-14.608731s-4.382619-16.069604-14.608731-16.069604c-3.79827-0.584349-5.40523 0.730437-5.551318 3.213921z m-28.340937 62.087105a9.2035 9.2035 0 0 0 8.619151-9.933936V641.323277a8.473064 8.473064 0 0 0-8.619151-9.787849V628.175419h37.544438c9.78785 0 31.116596 2.045222 31.116596 19.867874a17.530477 17.530477 0 0 1-10.080024 16.653953 62.087105 62.087105 0 0 1-30.38616 4.382619v18.99135a8.619151 8.619151 0 0 0 8.765238 9.933937V701.219073h-36.814001zM1378.772002 701.219073v-2.921746c5.113056 0 6.281754-1.899135 6.281754-4.820881a44.702716 44.702716 0 0 0-4.820881-12.417421H1354.229335a61.210582 61.210582 0 0 0-4.674794 12.271333c0 3.506095 1.168698 4.820881 4.820881 5.113056V701.219073h-21.036572v-3.067834c5.697405-1.60696 7.304365-4.674794 10.81046-12.271333l26.149628-58.434923h5.697405L1402.438146 683.396421c4.966968 10.518286 6.573929 13.293945 11.686984 14.608731V701.219073z m-1.60696-27.172239l-9.78785-23.373969-10.226111 23.373969zM1782.265144 680.182501l-3.79827 21.036572h-68.514947v-3.506095c5.551318 0 8.473064-2.483484 8.473064-8.473064v-49.085335c0-6.281754-3.79827-8.180889-8.473064-8.619151V628.175419h37.39835v3.506096c-5.113056 0-9.057413 2.045222-9.057413 8.619151v49.085335c0 5.259143 2.629572 7.742627 10.810461 7.742627 19.137437 0 24.834842-5.40523 29.217461-16.80004zM2159.024308 631.535428a11.39481 11.39481 0 0 0-9.495675 6.135666l-21.767009 31.993121v18.99135c0 7.158278 3.360008 8.473064 8.18089 9.2035V701.219073h-36.667915v-3.506095c4.820881 0 8.911326-1.168698 8.911326-9.203501v-15.631342l-22.351358-35.645303a10.810461 10.810461 0 0 0-9.495675-5.843492V628.175419h36.37574v3.067834c-4.090445 0-7.158278 3.213921-2.921746 9.641762l13.440032 22.643533 16.215691-23.373969c4.528707-7.158278 0-8.473064-3.506095-8.765239V628.175419h22.789619zM1685.117085 893.616056h-24.834843A106.789821 106.789821 0 0 1 1636.177837 891.132572l-17.238302-20.890485a168.292577 168.292577 0 0 0 21.620921 1.314786h36.229652a14.608731 14.608731 0 0 0 0-28.487025H1665.395298a20.744398 20.744398 0 0 1-15.485254-4.820881l-20.160049-22.351358c-15.777429-18.699175-70.414082 1.460873-53.760129 16.946127 10.080024 9.349588 17.530477 17.238302 28.048763 26.295716h-60.918407a14.608731 14.608731 0 1 0 0 29.217461h24.542668l14.608731 19.867874a31.700946 31.700946 0 0 0 29.217461 14.60873h74.504526a14.608731 14.608731 0 1 0 0-29.217461z m-181.294348-34.476604h-47.040113l36.960089-24.250493c29.217461-19.575699-31.262684-35.937477-49.815772-18.99135l-32.285295 24.688755a15.339167 15.339167 0 0 1-12.125246 3.360008h-16.800041a14.608731 14.608731 0 1 0 0 28.048763h50.107947l-20.013961 17.092215c-6.281754 5.551318-15.485255 4.382619-25.857454 4.382619h-21.474834a14.608731 14.608731 0 1 0 0 28.487025h59.895796a47.478375 47.478375 0 0 0 35.353128-14.608731l19.137437-19.283525h23.958319a14.608731 14.608731 0 0 0 14.60873-14.60873 14.608731 14.608731 0 0 0-14.60873-14.316556z m-506.338606 95.395011l-21.036572 33.892255a10.810461 10.810461 0 0 1-10.372199 6.720016h-10.372199a14.608731 14.608731 0 1 0 0 28.194851h32.431383a41.050533 41.050533 0 0 0 37.544437-16.361779l32.285295-50.254033c11.102635-16.069604-49.961859-19.721786-60.480145-2.19131z m38.713137-86.629773c1.022611-6.427842 5.40523-7.888715 13.878294-7.888715h204.522229a48.939248 48.939248 0 0 0 27.318327-7.450452 23.958318 23.958318 0 0 0 11.39481-14.608731l3.506095-16.946127c3.506095-14.608731-69.391471-17.238302-67.930598 0 0 1.899135-1.168698 5.843492-3.213921 7.158278a19.429612 19.429612 0 0 1-10.518286 2.483484H1024.072021c-26.733977 0-41.196621 6.427842-43.826192 22.20527l-8.765238 57.120137c-2.045222 14.608731 7.888715 21.182659 30.532247 21.18266h95.395011l-9.057413 54.636653a12.563508 12.563508 0 0 1-11.39481 8.619151h-15.923516a14.608731 14.608731 0 0 0 0 29.217461H1110.263532c29.947898 0 37.690525-16.653953 38.713136-21.913096l11.540898-69.97582h118.476806a14.608731 14.608731 0 1 0 0-29.217461h-113.363751l3.067834-17.38439c8.180889-18.99135-64.57059-18.260913-63.109717 0l-2.775659 16.800041h-62.817542c-5.843492 0-8.326976-1.753048-7.888714-5.405231z m244.111889 127.242044h-12.855683c-6.427842 0-10.372199-1.899135-11.102635-5.697405l-6.720016-32.285294c-2.921746-19.867874-66.323637-19.575699-61.941018 0l10.226111 45.871414c3.067833 13.440032 12.709596 20.306136 29.217462 20.306136h52.737517a14.608731 14.608731 0 0 0 0-28.194851z m-402.324443 0h-9.933937c-6.427842 0-10.664373-1.60696-11.248722-4.966968l-11.686985-64.278415a12.855683 12.855683 0 0 0-14.608731-8.034802h-17.384389l11.39481-19.137437c2.921746-15.777429-47.624462-18.114826-55.951439-4.090445L715.827804 989.157155a10.956548 10.956548 0 0 1-9.78785 6.281754h-21.182659c-5.98958 0-8.619151-2.483484-9.641763-4.820881l-20.306135-49.231423 55.367089-81.954979c6.720016-9.057413 24.688755-35.353128-5.113056-35.353128h-116.869845c-18.553088 0-21.328747 27.902676-1.314786 27.902676h73.043653c3.360008 0 1.314786 2.775659 1.314786 2.775658l-25.565279 37.690526-9.495675-23.812231c-8.765238-16.507866-60.334058-4.090445-52.299255 10.080024l28.048763 63.547978L569.740497 989.303242c-2.337397 3.506095-3.360008 5.259143-12.125247 5.259143h-13.586119a14.608731 14.608731 0 1 0 0 27.756588h34.768779a40.904446 40.904446 0 0 0 33.015731-16.946127l10.080024-14.608731s2.19131 5.259143 7.450453 17.238302 13.440032 14.608731 36.667914 14.608731h61.210582c18.260913 0 27.464414-2.775659 34.622691-14.608731s31.847033-55.659264 31.847033-55.659264l9.78785 52.299256c2.19131 12.563508 14.608731 18.699175 31.847033 18.699176h42.80358a14.608731 14.608731 0 1 0 0-27.902676z m726.784352-25.419191l-2.921746 17.238302a8.911326 8.911326 0 0 1-8.765239 7.742627H1431.655607a6.720016 6.720016 0 0 1-7.450452-7.158278l2.775658-16.946127a9.78785 9.78785 0 0 1 10.956548-8.034802h160.696038a5.843492 5.843492 0 0 1 5.843492 7.304365z m34.914866-35.645303H1404.045106c-20.306136 0-29.217461 5.40523-31.554858 15.923516l-9.933937 58.434923c0 3.652183 0 14.608731 22.643533 14.608731h233.739691c22.497445 0 35.207041-6.866103 37.544437-20.59831l8.619152-51.276645c2.921746-14.170469-12.417421-16.946128-25.857454-16.946128zM877.400365 832.697649h-68.514947l5.843492-10.226111c10.226111-14.608731-47.040113-21.328747-55.513176-2.337397l-18.845263 37.106176c-2.337397 4.090445-2.775659 6.135667-9.641762 6.135667h-10.372199a14.608731 14.608731 0 0 0 0 27.902675h25.857453a42.073144 42.073144 0 0 0 38.420962-14.608731l8.911326-14.60873h55.221002l-6.427842 37.106176c-3.652183 12.855683 47.1862 14.608731 48.208812 0l8.911325-51.714907c1.460873-9.2035-0.438262-14.754818-22.059183-14.754818z" fill="#d4237a" p-id="6418"></path></svg>