<?xml version="1.0" standalone="no"?><!DOCTYPE svg PUBLIC "-//W3C//DTD SVG 1.1//EN" "http://www.w3.org/Graphics/SVG/1.1/DTD/svg11.dtd"><svg t="1554899072582" class="icon" style="" viewBox="0 0 1024 1024" version="1.1" xmlns="http://www.w3.org/2000/svg" p-id="7195" xmlns:xlink="http://www.w3.org/1999/xlink" width="200" height="200"><defs><style type="text/css"></style></defs><path d="M894.464 525.312c-251.904 0-544.256 0-827.392-0.512-4.608 115.712 94.72 421.888 445.44 428.544 339.968-6.656 444.928-303.104 444.928-428.032V415.232c0-17.408-14.336-31.232-31.232-31.232-17.408 0-31.232 14.336-31.232 31.232v110.08z m-324.096-58.368h-501.76c-6.144-44.032 72.704-426.496 502.272-404.48v404.48zM185.344 962.56c36.864 0 68.096-16.896 86.528-45.568-49.664-22.016-124.416-87.552-149.504-141.312-23.04 18.944-41.984 50.176-41.984 82.432 0.512 57.856 47.104 104.448 104.96 104.448z m647.68 0c-36.864 0-68.096-16.896-86.528-45.568 49.664-22.016 124.416-87.552 149.504-141.312 23.04 18.944 41.984 50.176 41.984 82.432-0.512 57.856-47.104 104.448-104.96 104.448z" p-id="7196" fill="#1afa29"></path></svg>